<svg xmlns="http://www.w3.org/2000/svg" viewBox="0 0 536.33 118.34"><defs><style>.cls-1{fill:#932243;}.cls-2{fill:#fcb813;}</style></defs><title>Asset 2</title><g id="Layer_2" data-name="Layer 2"><g id="Layer_1-2" data-name="Layer 1"><path class="cls-1" d="M65.76,51.45A23.44,23.44,0,0,1,73,55.81a25.17,25.17,0,0,1,5,6.06A26.2,26.2,0,0,1,80.76,69a33.47,33.47,0,0,1,.89,7.54A29.21,29.21,0,0,1,71.33,99.34,35.2,35.2,0,0,1,60,105.77a41.18,41.18,0,0,1-13.88,2.29H8.91q-5.35,0-7.13-2.14T0,99V13.6Q0,8.87,1.78,6.65T8.91,4.43H45.27A51.34,51.34,0,0,1,57.82,5.91,28.81,28.81,0,0,1,68,10.57a22.15,22.15,0,0,1,6.75,8.13,26.58,26.58,0,0,1,2.45,11.9A22.44,22.44,0,0,1,74,42.21a21.88,21.88,0,0,1-8.24,8.2Zm-43.2-7.83H42.75a17.78,17.78,0,0,0,3.79-.44,10.48,10.48,0,0,0,3.63-1.54,8.27,8.27,0,0,0,2.67-3.08,10.84,10.84,0,0,0,1-5.06,8.74,8.74,0,0,0-2.82-6.9,11,11,0,0,0-7.57-2.49H22.56ZM58.34,75.1a13.11,13.11,0,0,0-3.64-9.61q-3.63-3.69-10.76-3.7H22.56V88.26H43.94a17.13,17.13,0,0,0,7-1.26,12.25,12.25,0,0,0,4.45-3.18,11.3,11.3,0,0,0,2.3-4.29,16.2,16.2,0,0,0,.67-4.44"/><path class="cls-1" d="M127.81,23.53a3.42,3.42,0,0,0,2.52-.67,4.64,4.64,0,0,0,.59-2.88V8a4,4,0,0,0-.66-2.59,3.05,3.05,0,0,0-2.45-.81H98.18a3,3,0,0,0-2.45.81A4,4,0,0,0,95.06,8V20a4.67,4.67,0,0,0,.59,2.88,3.41,3.41,0,0,0,2.52.67h3.46V89.12H98.18a3,3,0,0,0-2.45.81,4,4,0,0,0-.67,2.59v12a4.66,4.66,0,0,0,.59,2.88,3.41,3.41,0,0,0,2.52.67h29.63a3.42,3.42,0,0,0,2.52-.67,4.64,4.64,0,0,0,.59-2.88v-12a4,4,0,0,0-.66-2.59,3.05,3.05,0,0,0-2.45-.81h-3.46V23.53Z"/><path class="cls-1" d="M173.8,96.53a12.7,12.7,0,0,1-3.93,9.46,13.37,13.37,0,0,1-9.72,3.84,14.12,14.12,0,0,1-9.72-3.84,13.42,13.42,0,0,1-3-4.21,12.89,12.89,0,0,1,0-10.5,13.52,13.52,0,0,1,3-4.21,14.16,14.16,0,0,1,9.72-3.84,13.39,13.39,0,0,1,9.72,3.84,12.72,12.72,0,0,1,3.93,9.46"/><path class="cls-2" d="M276.18,106.08q-3.47-5.44-11.68-11.57c-.44-.33-.94-.63-1.4-1a45.44,45.44,0,0,0,7.1-14.91A84.8,84.8,0,0,0,272.94,56a78.32,78.32,0,0,0-2.9-22.1,46.17,46.17,0,0,0-8.61-16.7A37.45,37.45,0,0,0,247,6.65,51.39,51.39,0,0,0,226.78,3a47.41,47.41,0,0,0-19.15,3.7,39.89,39.89,0,0,0-14.4,10.57,47.65,47.65,0,0,0-9.12,16.85,73.36,73.36,0,0,0-3.19,22.4q0,25.43,11.21,39.32t34.22,13.9a59.05,59.05,0,0,0,16.33-2.08c-4.86-6.33-15-11.51-18.68-13.23-.84-.4-.68-.51.51-.25a72.47,72.47,0,0,1,26.76,12.74,79,79,0,0,1,11.23,9.65,4.63,4.63,0,0,0,2.4,1.79,2.86,2.86,0,0,0,2.21-1l8.73-7.44c.79-.65,1.17-1.24,1.16-1.77a4.23,4.23,0,0,0-.81-2.05M209.33,80.27a32,32,0,0,1-3.71-10.64,80.1,80.1,0,0,1-1.12-14A56.92,56.92,0,0,1,205.85,43,32.38,32.38,0,0,1,210,32.67a21.68,21.68,0,0,1,7-7,18.54,18.54,0,0,1,9.87-2.59q6.83,0,11.13,2.73a19.9,19.9,0,0,1,6.83,7.32,32.47,32.47,0,0,1,3.48,10.64,80.26,80.26,0,0,1,1,12.71A68.3,68.3,0,0,1,248.23,69a34.25,34.25,0,0,1-3.64,10.5A20.51,20.51,0,0,1,242,83l-13.76-5.24c-1-.39-1.73-.44-2.15-.18a4,4,0,0,0-1.22,1.91l-3.62,9.42a18.23,18.23,0,0,1-5-1.79,17.85,17.85,0,0,1-6.91-6.8"/><path class="cls-2" d="M328,92.1q1.5,0,4.25-.15t5.9-.59V33.11a3.44,3.44,0,0,1,.52-2.22c.34-.39,1.21-.59,2.6-.59h15.28q3.12,0,3.12,2.81V96.24a14,14,0,0,1-2,8q-2,3-7.2,4.14-1.78.3-4.45.59t-5.71.52c-2,.15-4,.24-6,.29s-3.71.08-5.19.08a69.31,69.31,0,0,1-18.19-2.07,27.42,27.42,0,0,1-12.17-6.65A26.37,26.37,0,0,1,292,89.22,65.87,65.87,0,0,1,289.9,71.4V33.11a3.48,3.48,0,0,1,.52-2.22c.34-.39,1.2-.59,2.58-.59h15.33q3.09,0,3.1,2.81V72.73a52.43,52.43,0,0,0,.6,8.5,13.89,13.89,0,0,0,2.38,6.06,10.52,10.52,0,0,0,5.07,3.62A25.5,25.5,0,0,0,328,92.1"/><path class="cls-2" d="M452,68.59a57.83,57.83,0,0,1-2.15,16,34.94,34.94,0,0,1-6.83,13,32.63,32.63,0,0,1-12.1,8.79,44.21,44.21,0,0,1-17.81,3.25,105.91,105.91,0,0,1-16.48-1.33,58.94,58.94,0,0,1-15.29-4.43,3.86,3.86,0,0,1-2.22-1.77,6.81,6.81,0,0,1-.45-2.66V3a2.94,2.94,0,0,1,.75-2.37,4.06,4.06,0,0,1,2.5-.59H397.1a4.2,4.2,0,0,1,2.36.52c.49.35.74,1.16.74,2.44l.15,27.8A50.87,50.87,0,0,1,408.8,29a71.23,71.23,0,0,1,9.06-.59,35.51,35.51,0,0,1,15.51,3.11A29.07,29.07,0,0,1,444,40a35.28,35.28,0,0,1,6.08,12.78A62.36,62.36,0,0,1,452,68.59m-22.41.52q0-11.27-4.33-16.76t-12.08-5.49q-1.94,0-5.67.37a33.81,33.81,0,0,0-7.31,1.55V90a31.91,31.91,0,0,0,6.26,1.19c2.19.2,4,.29,5.37.29q8.21,0,13-5t4.78-17.36"/><path class="cls-2" d="M501.6,28.53q17.37,0,26.05,8.65t8.68,24.76q0,7.68-3,10.49t-8.17,2.81h-38a20.43,20.43,0,0,0,1.56,7.83,13.15,13.15,0,0,0,9.35,7.69,30.43,30.43,0,0,0,6.91.74,38.58,38.58,0,0,0,8.76-1,50.9,50.9,0,0,0,8.31-2.66,4.67,4.67,0,0,1,2.45-.37,2.61,2.61,0,0,1,1.26,1.41l4.75,10.64a2.46,2.46,0,0,1,.22,2.07,4.08,4.08,0,0,1-1.56,1.48,37.88,37.88,0,0,1-12.77,5.1,65,65,0,0,1-13.51,1.55q-19.45,0-28.8-9.61t-9.35-30.46a53.71,53.71,0,0,1,2.59-17.37,36.53,36.53,0,0,1,7.42-12.94,31.22,31.22,0,0,1,11.58-8.05,40.23,40.23,0,0,1,15.21-2.74M502,46.27a12.77,12.77,0,0,0-9.94,4.29,18.25,18.25,0,0,0-4.45,10.94H515.4a26.23,26.23,0,0,0-.67-6.06,13,13,0,0,0-2.16-4.81,10.35,10.35,0,0,0-4-3.18A15.48,15.48,0,0,0,502,46.27"/></g></g></svg>